<svg version="1.1" id="svg6228" xmlns="http://www.w3.org/2000/svg" x="0" y="0" viewBox="0 0 1000 157.2" style="enable-background:new 0 0 1000 157.2" xml:space="preserve"><style>.st0{fill:#007bbc}</style><g id="layer1" transform="translate(-72.665 -423.748)"><path id="path4244" class="st0" d="M929.1 578.5c10.3 0 18.7-4.5 25-10.8.5-.5 4.9-4.5 10.4-10.3 3.4-2.9 7.3-5.4 12.3-5.9h8.4c5.4 1 10.3 2.5 14.7 4.5l43.3 17.7s10.8 4.9 19.7 4.9h6.4c2 0 3.4-1.5 3.4-3.5v-16.2c0-10.8-6.4-21.2-17.2-26.1l-9.8-3.9c-7.9-2.9-16.3-8.3-20.6-12.8 0 0-8.8-10.3 1.4-20.1l38.3-38.8c4.9-5.4 7.9-12.3 7.9-19.2 0 0 0-2.9-1-5.4-.5-2-2-3.9-2.9-4.9-2.4-2.5-5.9-3.9-9.8-3.9h-6.4c-9.8 0-18.7 4.4-25.1 10.8-.5.5-25.6 25.5-32.4 32.4l-34.9 35.4v-56c0-12.3-10.3-22.6-23.1-22.6h-9.8c-2.5 0-6.4 0-7.9 1-1.5.5-1.5 2.4-1.5 3.9v146.4c0 2 1.5 3.5 3.5 3.5h7.7z"/><path id="path4254" class="st0" d="M746.2 559.9c-.5 0-8.3-2.5-24.6-15.3-8.3-6.4-14.2-11.3-17.2-13.2 2.9-2 12.8-5.9 21.6-16.2 5.4-6.4 8.3-14.2 8.3-24 0-9.4-2.4-18.2-7.9-26.1-5.4-8.4-12.3-15.7-20.6-21.6-8.8-5.9-18.2-10.8-29-14.3-10.4-3.9-20.6-5.4-31-5.4H583c-2 0-3.5 1.4-3.5 3.4V573.7c0 1.4 0 2.9 1.5 3.9 2 1 6.4 1 8.8 1 3.4 0 7.3 0 10.8-1.5 5.4-1.4 9.8-5.4 13.2-9.8 6-7.9 7.4-16.7 7.4-26v-63.4c0-1 0-2.9.5-4.4.5-1.5 1.4-2.9 1.4-2.9 4.5-8.4 20.6-11.8 38.3-7.4 23.6 5.9 30.5 22.1 28.1 29-2.9 7.3-11.3 11.8-21.6 11.8-5.4 0-10.4-.5-15.7-2.5 0 0-3.5-1-5.9-2-1.5 0-3.9-1.4-5.4-1.4-2 0-2.9 1.4-2.9 4.4v16.7c0 5.4 2.5 10.8 5.9 13.8l51.1 40.3c4.9 3.5 10.4 5.4 16.3 5.4h33.4c2.4 0 3.4-1.5 3.4-4.5v-10.3c.1-2.1-.9-3.6-1.9-4z"/><path id="path4264" class="st0" d="M541.7 538.3h-44.8c-6.4 0-12.3-1.5-18.2-3.9-4.5-2-11.8-8.4-14.3-10.8-3.9-4.5-7.3-9.8-9.3-15.7-2.5-5.9-3.9-12.3-3.9-18.7 0-7.9 2.4-14.3 7.3-18.7.5-.5 2.5-2 4.5-3.5 2.4-1.4 4.9-2 6.9-2.4 2.4-.5 5.4-1 8.3-1 3.5 0 6.4.5 8.8 1 4.9 1 10.4 2.9 15.3 5.9 6.9 4.4 14.2 11.3 19.1 17.7h-46.7c-2.9 0-4.5 1.4-4.5 3.9 0 4.9 1 7.9 2.9 11.8 2 3.9 10.8 17.7 29 17.7h43.7c7.4 0 12.8-2 15.7-5.9 2.9-4.5 3.9-7.9 3.9-13.3 0-8.8-2.4-17.7-7.3-27-4.5-9.4-10.8-17.8-19.2-25.6-7.9-7.9-17.2-13.8-27.5-18.7-10.8-4.9-22.1-7.3-33.4-7.3h-64.4c-1.4 0-2.9 1.4-2.9 3.4v63.4c0 12.3 2 23.6 6.9 33.9 4.5 10.8 10.9 20.1 18.7 28 7.9 7.9 17.2 14.3 27.5 19.2 10.8 4.4 22.1 6.9 33.9 6.9h64.4c2 0 3.4-1.5 3.4-2.9v-13.3c0-7.3-2.4-13.2-6.4-17.7-4.2-4-10.1-6.4-17.4-6.4z"/><path id="path4274" class="st0" d="M396.6 446.3c0-12.3-10.4-22.6-23.1-22.6h-24.1c-1 0-2 .5-2.9 1l-48.7 45.7c-16.2 15.7-38.8 24-63.4 24-25.6 0-48.7-9.3-65.4-26 0 0-35.4-33.5-35.9-33.9-6.9-6.4-16.2-10.8-27-10.8h-29c-2.4 0-4.4 2-4.4 4.4v127.8c0 12.8 10.3 22.6 22.6 22.6H110.5c2.5 0 4.5-2 4.5-4.5v-45.2c0-12.2 9.8-22.1 21.1-22.1 22.2 0 37.4 18.7 51.6 31.4 17.2 15.2 30.5 29.9 46.7 29.9 16.7 0 30-14.7 47.2-29.9 14.2-12.8 29.5-31.4 51.1-31.4 11.8 0 21.6 9.8 21.6 21.6v27.5c0 12.8 10.3 22.6 22.6 22.6H392.1c2.5 0 4.5-2 4.5-4.5V446.3z"/><path id="path4284" class="st0" d="M900.1 513.7H877c-8.8 0-14.3 3.9-17.2 11.3-1.4 4.9-3.9 8.8-7.9 11.8-3.4 2.9-8.3 4.5-14.2 4.5-5.4 0-10.8-1.5-16.7-4.9-5.4-2.9-10.4-6.9-14.7-11.8-5-4.9-8.4-10.8-11.3-16.7-2.5-6.4-3.9-12.3-3.9-18.7 0-7.4 2-13.8 6.9-18.2 4.4-4.9 10.4-7.3 17.2-7.3 8.3 0 16.2 2.9 24.1 8.8 2.9 2.4 6.4 3.4 9.8 3.4 3.9 0 7.4-2 11.8-5.9l15.7-15.7c1-1 1.5-2 1-2.9 0-.5-1-1.5-2-2.5-8.3-7.9-17.7-14.2-28-18.7-10.4-4.4-21.2-6.4-32.4-6.4h-63c-2 0-3.4 1.4-3.4 3.9v62.9c0 12.3 2.4 23.6 7.3 34.4 4.9 10.8 11.3 20.6 19.7 29 8.4 7.9 18.2 14.7 29 19.7 10.4 4.9 21.6 7.3 33 7.3 9.3 0 17.7-1.4 25.6-4.9 7.9-2.9 14.7-7.3 20.6-12.8 5.9-5.4 10.3-12.2 13.8-20.1 3.4-7.4 5.4-16.2 5.9-25.1.3-3-1.1-4.4-3.6-4.4z"/></g></svg>