<svg xmlns="http://www.w3.org/2000/svg" viewBox="0 0 1000 163.7" style="enable-background:new 0 0 1000 163.7" xml:space="preserve"><linearGradient id="a" gradientUnits="userSpaceOnUse" x1="56.73" y1="37.025" x2="201.584" y2="37.025" gradientTransform="matrix(1 0 0 -1 -56.73 126.954)"><stop offset=".3" style="stop-color:#e74a21"/><stop offset=".7" style="stop-color:#ec9a1e"/></linearGradient><path d="m100 73.4-.4 1c6.8 3 22 14.8 22 38.6 0 22.4-18.9 45-48.6 45-36.9 0-49.7-21.6-49.7-41.4 0-25.4 17.8-42.3 17.8-65.5-.2-16.9-12-31.4-28.5-34.9l-.6 1c5.9 5.7 9.2 13.5 9.1 21.7 0 25-21.1 42.8-21.1 71.5 0 26.4 18.5 53.4 72 53.4 47.7 0 72.9-23.4 72.9-48.2-.1-21.4-15.3-39.4-44.9-42.2z" style="fill:url(#a)"/><path d="m309.5 159.5-63.4-81.8v73.7l12.9 3.1v3.4h-29.5v-3.4l10.6-3.1V71.1c-2.6-2.4-5.7-4.2-9-5.1-1.3-.3-3-.6-3-.6V62h25l54.2 70.4V68.6l-12.9-3.1v-3.4h29.5v3.4l-10.6 3.1v73.1c0 6.8.5 16.6.6 17.9l-4.4-.1zm132.6-52.1c0 33.9-23.7 53.5-49.6 53.5s-49.7-19.9-49.7-50.8 23.7-51 49.5-51c26.6-.9 48.9 20 49.8 46.6v1.7zm-16.5 5.1c0-24.9-14.9-49-35.1-49-21.5 0-31.2 20.8-31.2 43.1s12.3 49.9 35.4 49.9c21.7 0 30.9-22 30.9-44zm37-44-10.2-3.1V62h38.9v3.4l-12.2 3.1 26.8 73.2 26.8-73.2-12.2-3.1V62h28.8v3.4l-10.2 3.1-33.6 91.2h-8.6l-34.3-91.2zm229.9 40.4h-6.2V67c20.3 0 32.4 4.7 32.4 21.3-.1 12.3-10.7 20.6-26.2 20.6zm174 45.6 13.5-3.1V68.5l-13.5-3.1V62h42.2v3.4l-13.5 3.1v82.9l13.5 3.1v3.4h-42.2v-3.4zm68.1-22.9h2.7l9 20.6c5.3 2.7 11.2 4.1 17.2 4.3 11.6 0 22.3-6.8 22.3-18.9 0-9.2-6-14.7-15.6-19.7l-9.5-4.9c-11.4-5.9-22.8-14.3-22.8-27.8 0-14.7 10.2-26 31.9-26 7.6.1 15.2 1.3 22.5 3.7l2.3 22.2h-2.9l-8.3-17.8c-4.3-2.4-9.1-3.7-14-3.7-11 0-18.5 6.8-18.5 16.1 0 8.5 5.7 13.8 15.3 18.9l11.3 5.9c15.4 8 22.7 15.4 22.7 29.1 0 16.9-15.9 27.5-35.6 27.5-9.3.1-18.5-1.2-27.4-4.1l-2.6-25.4zm-391.4 22.9 10.9-3.1 33.5-89.5 11.2-2.9 34.6 92.3 10.9 3.1v3.4h-41.1v-3.4l13.9-3.1-9.8-26.5h-36.9l-9.7 26.5 13.9 3.1v3.4h-31.4v-3.3zm29.8-36.7h31.9L589.1 75 573 117.8zm138.8-6.8c3.4-.8 22.4-5.7 22.4-23.7 0-14.5-11.1-25.7-38.4-25.7-16.9 0-33.9.4-36 .4v3.4l11.1 3.1v82.8l-11.1 3.1v3.4h39.4v-3.4l-12.9-3.1v-37.4h11.1l28.5 44h25.2v-3.4l-12.8-3.4-26.5-40.1zM795 67v84.4l-13.5 3.1v3.4h42.2v-3.4l-13.5-3.1V67H833l7.5 16.2h2.9l-2.2-21.1H764l-2.2 21.1h2.9l7.4-16L795 67zM72.6 127.9 86.2 0H58.1l13.5 127.9h1z" style="fill:#0460a9"/></svg>