<svg version="1.1" id="Camada_1" xmlns="http://www.w3.org/2000/svg" xmlns:xlink="http://www.w3.org/1999/xlink" x="0" y="0" viewBox="0 0 2000 1196.6" style="enable-background:new 0 0 2000 1196.6" xml:space="preserve"><style>.st0{fill:#bae3e3}.st6{fill:#00b6b6}</style><path class="st0" d="M3920.7 510.8c14.4 0 30.7 1.1 30.9 12.1.5 46.8-9.5 174.1-9.5 267.7 0 24.5-84.8 84.4-141.6 84.4-13.4 0-26.5-4-26.5-33.6 0-14.3 8.1-221.6 18.9-249.5 8.8-23.2 81.7-81.1 127.8-81.1M4531.9 354.7c56.5 55.5 120.1 112.9 120.1 142.8 0 29.1-86 92.9-102.3 92.9-65.2.2-222.1-219.2-222.1-260.3 0-49.3 24.1-97 57.2-108.1 8.7-2.8 76.3 63.1 147.1 132.7M3213.7 406.2c0-23.8 105.9-140.1 110.3-144.5 24.3-21.1 126.5-36.7 157.3-36.7 6.9 0 12 2.2 11.8 5.9.2 52-156 196.1-220.2 203.6-13 0-59.1-9.5-59.2-28.3M4454.9-381.9c51.3 17.7 135.2 66.9 252.2 66.8 62 0 84.1 4.1 84.2 34.4 0 11.6.7 43.5.7 53.1 0 78.9-18.8 73.9-28.3 73.9-20.5 0-320.5-18.4-320.5-189 0-11.6-1.2-43.6 11.7-39.2" transform="matrix(.35278 0 0 -.35278 -39.642 308.631)"/><defs><path id="SVGID_1_" d="M1510.6 150.1c-13.4 18.2-23.5 35.9-23.5 42.1 0 17.4 8.5 34.2 20.2 38.1h.2c2.2 0 10.6-7.3 21.9-17.9v-62.3h-18.8z"/></defs><clipPath id="SVGID_2_"><use xlink:href="#SVGID_1_" style="overflow:visible"/></clipPath><g style="clip-path:url(#SVGID_2_)"><image style="overflow:visible;enable-background:new" width="8" height="13" xlink:href="94DF48D0.png" image-rendering="optimizeSpeed" transform="matrix(5.76732 0 0 6.44098 1484.885 148.328)"/></g><defs><path id="SVGID_3_" d="M1094.1 165.4c0 8.4 37.4 49.4 38.9 50.9 8.5 7.4 44.6 12.9 55.5 12.9 2.4 0 4.2-.8 4.2-2 .1-18.4-55-69.2-77.7-71.8-4.6 0-20.9 3.3-20.9 10"/></defs><clipPath id="SVGID_4_"><use xlink:href="#SVGID_3_" style="overflow:visible"/></clipPath><g style="clip-path:url(#SVGID_4_)"><image style="overflow:visible;enable-background:new" width="16" height="12" xlink:href="94DF48D1.png" image-rendering="optimizeSpeed" transform="matrix(6.40814 0 0 6.40814 1091.853 153.455)"/></g><g><defs><path id="SVGID_5_" d="M1527.8 429.5c0 3-.2 10 1.5 12.8v-24.7c-1 3.7-1.5 7.7-1.5 11.9"/></defs><clipPath id="SVGID_6_"><use xlink:href="#SVGID_5_" style="overflow:visible"/></clipPath><g style="clip-path:url(#SVGID_6_)"><image style="overflow:visible;enable-background:new" width="1" height="5" xlink:href="94DF48D7.png" image-rendering="optimizeSpeed" transform="matrix(5.1265 0 0 5.46827 1525.897 416.614)"/></g></g><g><path d="M3951.7 349.9c-144-2.1-288.5-129.1-378.8-285.5-41.6-72.7-71.4-151.4-84.4-226.9C3351.3-76.1 3202.9-23 3105.8-23c-264.8 0-310.2-203.5-310.2-315.2 0-413.2 767.6-871.5 1002-871.5 189 2.7 542.5 587.2 535.3 1074-2.9 199.5-112 489.8-381.2 485.6m-208.9-964.7c0-14.7-5.2-25.9-18.3-25.9-107.5 0-118.9 213.6-118.9 213.6 84.5-47.3 137.2-112.9 137.2-187.7m-26.4-443.8c-167.3 0-646.1 430-646.1 673.6 0 116.1 78.5 149.4 143.8 149.4 74.2 0 249.3-102.6 249.3-102.6s26.1-460.5 203.3-460.5c62.9 0 180.9 104.5 180.9 188.6 0 138.3-106.5 247.3-229.2 352.3 5.8 53.1 40.6 147.9 97.4 220.6 51.6 65.9 123.4 118.1 213 119.4 88.1 1.5 146.8-93.8 148.8-246.1 5.5-366.4-209.4-892.3-361.2-894.7" style="fill:#ffe512" transform="matrix(.35278 0 0 -.35278 -39.642 308.631)"/></g><g><defs><path id="SVGID_7_" d="M1392.1 445c-2.3 13.6-5.1 27.4-8.5 41-24.6 101-74 195.4-112.2 196-58.9 0-227.2-151-227.9-237.1h-95.7c19.6 141 272.8 290.4 352.2 290.4 50.3-.7 133.5-118.1 170.3-249.3 3.8-13.6 7.1-27.3 9.8-41h-88zm-181.5 0c7.1 4.5 14.7 9.4 21.7 14.3 13.7 7.6 25 16.6 33.3 26.7 9.7 11.9 15.1 25.2 15.1 39.5 0 5.2-1.9 9.1-6.5 9.1l-20.4 55.7c22.2 0 63.8-36.9 63.8-66.5 0-13.3-2.8-25.9-7.8-37.8-6-14.4-15.1-28-26.1-41h-73.1zm33.3 143.9c-30.6-9.3-46.4-60.6-54.3-102.9-2.9-15.9-4.8-30.4-5.9-41 4 38.8 18.1 131.2 60.2 143.9m.1.1s-.1 0 0 0c-.1 0 0 0 0 0m.7.2c-.2-.1-.4-.1-.7-.2.2 0 .5.1.7.2m.1 0h-.1.1zm1.5.3c-.5-.1-1-.2-1.5-.4.5.2 1 .3 1.5.4m.1.1c-.1 0-.1-.1 0 0-.1-.1-.1 0 0 0m1.5.3-1.5-.3 1.5.3m.1 0h-.1.1m1.6.2c-.5-.1-1-.2-1.5-.2.4.1.9.2 1.5.2m.1.1h-.2c.1-.1.2-.1.2 0m.8 0c-.2 0-.5-.1-.7-.1.2.1.4.1.7.1m.7.1c-.2 0-.5-.1-.7-.1.2 0 .5.1.7.1m-.7-.1zm1.7.2c-.3 0-.5 0-.8-.1.3 0 .5.1.8.1m-1-.1h.2-.2m1.7.1h-.8.8m.2 0h-.2.2m0 0h.8-.8"/></defs><clipPath id="SVGID_8_"><use xlink:href="#SVGID_7_" style="overflow:visible"/></clipPath><g style="clip-path:url(#SVGID_8_)"><image style="overflow:visible;enable-background:new" width="83" height="46" xlink:href="94DF48D2.png" image-rendering="optimizeSpeed" transform="matrix(6.44416 0 0 6.38955 946.724 443.314)"/></g></g><g><path class="st6" d="M1293 933.9c0-190.7 106.3-206.2 131.1-206.2 79.8 0 115.5 78.1 115.5 132.1 0 22.7-5.8 33.6-40.9 48L1380 949.9c0 38 14.4 43.1 32.1 43.1 40.7 0 80.1-52.1 102.9-52.1 12.2 0 24.7 20.3 24.7 32.9 0 43.1-70.1 96.7-140.5 96.7-60.2 0-106.2-51-106.2-136.6m127.7-132.7c-36.9 5.2-42.5 61.5-42.6 77.9l82.9-28.4c-.8-12.4-8.5-49.5-40.3-49.5M1990.1 1007.9c0-95-127.6-135.5-127.6-184.1 0-11.3 7.1-24.6 25-24.6 42.9 0 31.1 52.4 64.2 52.4 17.8 0 48.4-9.1 48.4-28 0-61.8-65.3-100.3-115-100.3-42.1 0-102.7 20.2-105.3 93.5-3.7 109.2 122.8 141.9 122.8 185.2 0 21.1-17.1 24.6-33.5 24.6-50.5 0-73.6-56.5-97.2-56.5-15.7 0-33.7 24.6-33.7 49.3 0 35.8 63.9 86 136.5 86 60.3.3 115.4-35.2 115.4-97.5M637.5 1071.5c0 13.2-6.1 19.2-24.2 18.8-48.6-1.3-70.4-39.2-70.4-81.5V781.6c0-35.6 36.1-52.6 58-52.9 19.4 0 25.2 13 25.2 38.3v18.2c23.2-30.4 58.5-40.3 80.3-40.3 49.6 0 78.1 27.7 85.6 45.2 28.3-37 56.4-45.2 84.3-45.2 100.9 0 103.5 94.1 103.5 119v195.7c0 15.7-9 18.6-31.2 18.6-51.1 0-63.3-32.1-63.3-78.4l-.1-124c0-22.2-6.5-42.8-31.1-42.8-24 0-46.6 11.1-46.6 45.7v160.7c0 18.2-16.1 25-30.5 25-53.8 0-61.2-41.8-61.2-68.1V877.6c0-29.9-10.1-44.6-34.4-44.6-26.3 0-44.3 20-44.3 48.9 0 7.7.3 184.1.4 189.6M399.5 727.9c-51.2 0-56.9 26.1-57.7 39.2-.8 13.3 8.4 36.6 25.1 35.5 2.3-.1 9.2-.3 10.2-.3 24.3-.1 50.6 5.4 50.4 30.7 0 4.2-.4 13.9-.4 13.9s-193.5-4.2-193.5 128.4c0 50.1 36.8 104.4 96.8 104.4 40.2 0 79.7-28.4 95.4-66.7-2.3 5.6-3.2 16.8-3.2 21.4 0 40.4 27.2 47.9 66.5 47.9 15.4 0 18.5-8.8 18.5-26.3V846.1c-3-99.7-63-118.2-108.1-118.2m-48 279.8c-19.6 0-25.9-16.5-25.9-33.9 0-53.8 69.3-66 98.7-66h2.2c0 79.7-49.7 99.9-75 99.9M1130.6 721.4c-71.3.4-118.1 36.3-118.1 153V1144c0 32.6 8 52.5 47.7 52.5 22.2 0 31.4-2.6 31.4-16.7V1061c27.3-4.4 178.4-25.5 178.4-209.5 0-44.7-26.6-130.1-139.4-130.1m-38.7 151.7c0-42.2 8.8-66.1 44.4-69.1 28.7-2.2 55 18.2 55 52.4 0 74.9-32.7 122.8-99.4 127.3V873.1z"/><path class="st6" d="M0 704.5c0 125.1 21.2 297.9 29.7 347.8 7.7 45 16.1 69.7 66.6 69.7 28.2 0 40.1-3.2 40.1-21.1l-26.1-208.4c34.6-5.7 227.2-31.4 227.2-252.1 0-65.2-35.4-163-154.5-163-94.2-.1-183 58.2-183 227.1m176.1-134.8c31.8 0 69.2 21.3 69.2 87.9 0 75.2-46.6 128.4-142.4 148.5-4.3-33.3-6.4-65.3-6.4-93.7 0-96.5 28.9-142.7 79.6-142.7M1656.6 781c0-16.8-.2-27.2-.2-27.2 0-15.1-9.9-22.7-26.8-22.6-23.4.4-55.7 15.6-55.7 50.2v236.3c0 47.3 16.5 64.8 66.7 64.8 0 0 25.1-2.3 25.1-16.3s-.4-188.7-.4-189.4c0-31.8 48.1-54.2 81.3-66 11-3.7 15.2-14.4 15.2-23.6 0-21.6-5.6-50.7-30-50.7-13.9.2-38.8 6.3-75.2 44.5"/></g><linearGradient id="SVGID_9_" gradientUnits="userSpaceOnUse" x1="1366.492" y1="641.354" x2="1366.492" y2="695.509" gradientTransform="matrix(4.132 0 0 -4.132 -4415.914 3189.841)"><stop offset="0" style="stop-color:#ffe512"/><stop offset=".563" style="stop-color:#e5c700"/><stop offset="1" style="stop-color:#ffe512"/></linearGradient><path d="M1247.8 247.2c-9.8 11.6-21.2 28.2-31 45.9-4.5 8.4-8.5 16.9-12 25.6-5.5 13.9-10.3 29.4-12.9 42.4l-.9 4.8 45.9 33.6c.6-5.2 2-11.6 4.1-18.7 3-11.5 6.6-19.9 11.3-28.6 2.2-4.4 4.5-8.7 7.1-13 2.8-5.1 6.4-11 13.3-19.2 1.9-2.4 4-4.8 6-7v-.1l-30.9-65.7zm-65.6 180.7s.4 6.6 1.5 17.1c4.4 41.7 20.3 145.4 70.2 145.4l20.4-55.7c-37.9 0-42-75.3-42-75.3-7-4.9-14.6-9.8-21.7-14.3-15.3-9.7-28.4-17.2-28.4-17.2z" style="fill:url(#SVGID_9_)"/></svg>