<svg version="1.1" id="Ebene_1" xmlns="http://www.w3.org/2000/svg" x="0" y="0" viewBox="0 0 1500 385.6" style="enable-background:new 0 0 1500 385.6" xml:space="preserve"><style>.st0{fill:#7a00e6}</style><path d="M612.4 255.1v-108c0-2.4-.1-4.7.3-6.9 1.2-8.7 5.6-14.8 14.2-17.7 27.1-9.4 54.9-15.7 83.6-18.1 20.2-1.7 40.4-1.6 60.4 1.4 14.7 2.2 28.8 6.2 41.9 13.1 25.7 13.5 40 35.1 44.8 63.4 1.3 7.3 1.7 14.7 1.7 22v164.2c-.3 7.6-3.7 11.3-11.3 11.4-16 .1-32 .1-48 0-7.2 0-10.7-3.7-11.3-10.9-.1-1.8 0-3.8 0-5.6V216.8c0-6.3-.4-12.7-2.4-18.7-5.4-16-17.3-24.4-33-27.9-13-2.9-26-2-39.1-.7-6 .5-12.1 1.8-18 3.3-10.2 2.4-13.2 6.3-13.2 16.8V369c-.3 7.1-3.9 10.9-11.1 11-8.4.1-16.9 0-25.3 0-7.3 0-14.8.1-22.2 0-8.7-.1-12.2-3.8-12.2-12.5.2-37.4.2-74.9.2-112.4zM208.5 380c-8 0-16 .1-24 0-8.1-.1-10.9-3.8-8.7-11.9 1.6-5.9 2.9-11.8 3-18 .3-15.6-6.2-27.7-18.6-36.6-9.2-6.6-19.4-11-30-14.4-17.6-5.6-35.4-10.9-53-16.5-14.2-4.6-27.8-10.3-40.3-18.9-21-14.4-31.5-34.3-32.6-59.6-2.2-45.7 23.2-79.4 65-94.4 19.3-6.8 39.3-9.2 59.6-8.7 32.4.9 63.4 7.3 92.8 21.2 4.2 2 8.3 4.1 12.3 6.4 8.4 4.7 10.5 10.6 6.9 19.5-1.3 3.3-2.9 6.6-4.3 9.8-4.1 8.5-8 17.2-12.2 25.7-4.7 9.7-12.3 12.3-21.8 7.2-15.7-8.5-32-15.9-49.6-20.1-17.2-4.1-34.5-5.8-51.9-1.8-5.4 1.2-10.5 3.1-15.1 6.3-13.2 9.5-13.7 25.8-1 35.8 5.6 4.5 12.2 7.3 19 9.8 16.4 6 33.4 10.1 50.1 15.2 15.5 4.7 30.8 10.1 45.1 17.8 9.8 5.4 19 11.7 26.9 19.7 16.6 16.9 23.9 37.8 24.5 61.1.4 10.5-.5 21-3.4 31.2-.4 1.6-.9 3.3-1.4 4.9-2.6 7.1-5.8 9.3-13.2 9.4-8.1.1-16.1-.1-24.1-.1zM1237.1 236.1c0-41.7-.1-83.4 0-125.1 0-18.5 2.9-36.4 10.2-53.6 12.8-29.8 36.2-46.8 67.2-53.7 21.9-4.9 43.9-4.9 65.8-.3.4.1.8.1 1.2.3 10.7 2.5 13.1 6 11 17-1.8 9.6-3.5 19-5.4 28.4-1.8 9.8-5.2 12.3-15.3 10.9-7.9-1-15.9-2.5-23.9-2.4-4.5.1-8.9.7-13.1 1.7-16 3.8-25.3 15.5-27.1 33.2-.4 3.8-.5 7.6-.7 11.4-.1 4.5-.1 4.6 4.3 4.6h62.6c9.6 0 12.8 3.4 13 13 .1 11.4.1 22.7 0 34.1 0 9.6-3.4 12.7-13.1 12.7h-64.5c-1.6 0-2.2.8-2.2 2.4v5.1c0 62.9-.1 125.8.1 188.9 0 10.5-2.6 15.7-15.2 15.3-13.9-.4-27.8-.4-41.7 0-9.7.3-13.5-5.4-13.4-13.4.4-43.3.2-87 .2-130.5zM1497.7 244.2v123.1c-.1 9.4-3.4 12.7-13.1 12.7h-36.7c-3.4 0-6.7.1-10.1 0-6.4-.3-10.1-3.7-10.7-10.1-.3-1.8-.1-3.8-.1-5.6v-240c0-12.8 2.9-15.6 15.5-15.6h42.3c9.4 0 12.8 3.4 13 13-.1 40.8-.1 81.6-.1 122.5z"/><path class="st0" d="M1500 38c.1 18-8.8 31.1-24.4 35.5-8.7 2.5-17.4 2.4-26.1-.1-17.4-5.1-25.4-19.7-24.9-37.9.1-2.9.5-5.9 1.2-8.8 3.3-13.5 11.7-22.2 25.2-25.3 8.9-2.1 18-1.7 26.7 1.4 13.8 5 20.4 15.3 22.2 29.5.2 1.9.1 3.9.1 5.7zM75.5 347.8c-.3 4.1-.4 7.7-1.3 11.5-3.9 14.3-13.2 22.7-27.5 25.4-7.5 1.4-15.1 1-22.4-1.3-11.6-3.8-19.5-11.4-22.7-23.3-2.4-8.9-2.2-18 .7-26.7 3.8-11.4 11.8-18.6 23.5-21.6 8.1-2.1 16.3-1.8 24.4.3 14.2 3.7 23.7 15.1 25 29.8.1 1.9.3 4 .3 5.9z"/><path d="M546.4 143.1c-.5-10.1-5-17.2-14.9-20.3-.7-.1-1.2-.4-1.8-.7-26.2-9.7-53.1-16-81-18.1-19.8-1.4-39.6-1.6-59 3-47.8 11.3-80.6 39.6-95.8 86.6-11.8 36.6-10.5 73.5 1.7 109.7 9 27 25.8 48.4 50.7 62.9 19.7 11.5 41.2 17 63.6 18.4 25.8 1.6 51.3-.4 76.6-6.2 15.9-3.7 31.2-8.7 46.1-14.9 8.4-3.5 13-9.7 13.8-18.7.1-2.1.1-4.2.1-6.3V148.6c-.1-1.7.1-3.6-.1-5.5zm-80.6 171c-19.9 6.3-40.4 8.9-61 3.5-20.4-5.4-34.3-18.5-41.2-38.3-8-22.9-8.1-46.4-.1-69.3 8.9-25.4 27.9-38.7 54.5-41 14.2-1.2 28.2.1 41.9 3.8 1.6.4 3.3.9 4.9 1.4 8.1 3 10.9 6.8 11 15.6.1 18.4 0 36.6 0 54.9 0 18.1-.1 36.2 0 54.3.1 7.6-3 12.9-10 15.1zM1178.8 199.5c-12.1-41.9-37.8-71.8-78.9-87.2-26.2-9.7-53.4-11.5-80.9-6.6-41.4 7.5-72.8 29.5-91.4 67.4-20.7 42.2-21.8 86-5.5 129.8 14 37.9 41.3 62.8 79.6 75.4 22.9 7.5 46.7 9 70.5 5.5 42.6-6.2 74.9-27.8 95.3-65.8 12.3-22.9 17-47.7 17.2-79-.1-9.9-1.7-24.8-5.9-39.5zm-72.2 81.7c-10.6 29-35.9 41.3-63.7 38.7-7.2-.7-14.2-2-20.8-4.7-16.1-6.7-27-18.5-32.8-34.7-8.5-24.3-8.5-48.8.3-72.9 9.2-25.3 30.4-39.3 57.4-38.9 6.3.1 12.6.7 18.7 2.2 20.1 5.2 33.8 17.7 40.9 36.8 8.9 24.5 8.9 49.2 0 73.5z"/></svg>